<?xml version="1.0" standalone="no"?>
<!DOCTYPE svg PUBLIC "-//W3C//DTD SVG 1.1//EN" "http://www.w3.org/Graphics/SVG/1.1/DTD/svg11.dtd" >
<svg xmlns="http://www.w3.org/2000/svg">
<metadata>Generated by IcoMoon</metadata>
<defs>
<font id="icomoon" horiz-adv-x="1024">
<font-face units-per-em="1024" ascent="960" descent="-64" />
<missing-glyph horiz-adv-x="1024" />
<glyph unicode="&#x20;" horiz-adv-x="512" d="" />
<glyph unicode="&#xe900;" glyph-name="dark-mode" d="M469.76 829.867c-192-20.907-341.76-183.893-341.76-381.867 0-212.053 171.947-384 384-384 197.547 0 360.533 149.333 381.867 341.333 3.84 33.707-33.28 60.587-65.707 40.533-35.84-23.040-78.507-36.267-124.16-36.267-127.147 0-230.4 103.253-230.4 230.4 0 45.227 13.227 87.893 35.84 123.307 19.2 28.587-1.707 69.547-39.68 66.56z" />
<glyph unicode="&#xe901;" glyph-name="delete" d="M256 149.333c0-46.933 38.4-85.333 85.333-85.333h341.333c46.933 0 85.333 38.4 85.333 85.333v426.667c0 46.933-38.4 85.333-85.333 85.333h-341.333c-46.933 0-85.333-38.4-85.333-85.333v-426.667zM768 789.333h-106.667l-30.293 30.293c-7.68 7.68-18.773 12.373-29.867 12.373h-178.347c-11.093 0-22.187-4.693-29.867-12.373l-30.293-30.293h-106.667c-23.467 0-42.667-19.2-42.667-42.667s19.2-42.667 42.667-42.667h512c23.467 0 42.667 19.2 42.667 42.667s-19.2 42.667-42.667 42.667z" />
<glyph unicode="&#xe902;" glyph-name="done" d="M384 268.8l-149.333 149.333c-16.64 16.64-43.093 16.64-59.733 0s-16.64-43.093 0-59.733l178.773-178.773c16.64-16.64 43.52-16.64 60.16 0l452.267 451.84c16.64 16.64 16.64 43.093 0 59.733s-43.093 16.64-59.733 0l-422.4-422.4z" />
<glyph unicode="&#xe903;" glyph-name="home" d="M426.667 149.333v213.333h170.667v-213.333c0-23.467 19.2-42.667 42.667-42.667h128c23.467 0 42.667 19.2 42.667 42.667v298.667h72.533c19.627 0 29.013 24.32 14.080 37.12l-356.693 321.28c-16.213 14.507-40.96 14.507-57.173 0l-356.693-321.28c-14.507-12.8-5.547-37.12 14.080-37.12h72.533v-298.667c0-23.467 19.2-42.667 42.667-42.667h128c23.467 0 42.667 19.2 42.667 42.667z" />
<glyph unicode="&#xe904;" glyph-name="info" d="M469.333 661.333h85.333v-85.333h-85.333zM512 234.667c23.467 0 42.667 19.2 42.667 42.667v170.667c0 23.467-19.2 42.667-42.667 42.667s-42.667-19.2-42.667-42.667v-170.667c0-23.467 19.2-42.667 42.667-42.667zM512 874.667c-235.52 0-426.667-191.147-426.667-426.667s191.147-426.667 426.667-426.667 426.667 191.147 426.667 426.667-191.147 426.667-426.667 426.667zM512 106.667c-188.16 0-341.333 153.173-341.333 341.333s153.173 341.333 341.333 341.333 341.333-153.173 341.333-341.333-153.173-341.333-341.333-341.333z" />
<glyph unicode="&#xe905;" glyph-name="light-mode" d="M512 661.333c-117.76 0-213.333-95.573-213.333-213.333s95.573-213.333 213.333-213.333 213.333 95.573 213.333 213.333-95.573 213.333-213.333 213.333v0zM85.333 405.333h85.333c23.467 0 42.667 19.2 42.667 42.667s-19.2 42.667-42.667 42.667h-85.333c-23.467 0-42.667-19.2-42.667-42.667s19.2-42.667 42.667-42.667zM853.333 405.333h85.333c23.467 0 42.667 19.2 42.667 42.667s-19.2 42.667-42.667 42.667h-85.333c-23.467 0-42.667-19.2-42.667-42.667s19.2-42.667 42.667-42.667zM469.333 874.667v-85.333c0-23.467 19.2-42.667 42.667-42.667s42.667 19.2 42.667 42.667v85.333c0 23.467-19.2 42.667-42.667 42.667s-42.667-19.2-42.667-42.667zM469.333 106.667v-85.333c0-23.467 19.2-42.667 42.667-42.667s42.667 19.2 42.667 42.667v85.333c0 23.467-19.2 42.667-42.667 42.667s-42.667-19.2-42.667-42.667zM255.573 764.587c-16.64 16.64-43.947 16.64-60.16 0-16.64-16.64-16.64-43.947 0-60.16l45.227-45.227c16.64-16.64 43.947-16.64 60.16 0s16.64 43.947 0 60.16l-45.227 45.227zM783.36 236.8c-16.64 16.64-43.947 16.64-60.16 0-16.64-16.64-16.64-43.947 0-60.16l45.227-45.227c16.64-16.64 43.947-16.64 60.16 0 16.64 16.64 16.64 43.947 0 60.16l-45.227 45.227zM828.587 704.427c16.64 16.64 16.64 43.947 0 60.16-16.64 16.64-43.947 16.64-60.16 0l-45.227-45.227c-16.64-16.64-16.64-43.947 0-60.16s43.947-16.64 60.16 0l45.227 45.227zM300.8 176.64c16.64 16.64 16.64 43.947 0 60.16-16.64 16.64-43.947 16.64-60.16 0l-45.227-45.227c-16.64-16.64-16.64-43.947 0-60.16s43.947-16.64 60.16 0l45.227 45.227z" />
<glyph unicode="&#xe906;" glyph-name="lightbulb" d="M512 21.333c46.933 0 85.333 38.4 85.333 85.333h-170.667c0-46.933 38.4-85.333 85.333-85.333zM384 149.333h256c23.467 0 42.667 19.2 42.667 42.667v0c0 23.467-19.2 42.667-42.667 42.667h-256c-23.467 0-42.667-19.2-42.667-42.667v0c0-23.467 19.2-42.667 42.667-42.667zM512 874.667c-176.64 0-320-143.36-320-320 0-162.987 113.493-250.027 160.853-277.333h318.293c47.36 27.307 160.853 114.347 160.853 277.333 0 176.64-143.36 320-320 320z" />
<glyph unicode="&#xe907;" glyph-name="close" d="M780.8 716.373c-16.64 16.64-43.52 16.64-60.16 0l-208.64-208.213-208.64 208.64c-16.64 16.64-43.52 16.64-60.16 0s-16.64-43.52 0-60.16l208.64-208.64-208.64-208.64c-16.64-16.64-16.64-43.52 0-60.16s43.52-16.64 60.16 0l208.64 208.64 208.64-208.64c16.64-16.64 43.52-16.64 60.16 0s16.64 43.52 0 60.16l-208.64 208.64 208.64 208.64c16.213 16.213 16.213 43.52 0 59.733z" />
<glyph unicode="&#xe908;" glyph-name="menu" d="M170.667 192h682.667c23.467 0 42.667 19.2 42.667 42.667s-19.2 42.667-42.667 42.667h-682.667c-23.467 0-42.667-19.2-42.667-42.667s19.2-42.667 42.667-42.667zM170.667 405.333h682.667c23.467 0 42.667 19.2 42.667 42.667s-19.2 42.667-42.667 42.667h-682.667c-23.467 0-42.667-19.2-42.667-42.667s19.2-42.667 42.667-42.667zM128 661.333c0-23.467 19.2-42.667 42.667-42.667h682.667c23.467 0 42.667 19.2 42.667 42.667s-19.2 42.667-42.667 42.667h-682.667c-23.467 0-42.667-19.2-42.667-42.667z" />
<glyph unicode="&#xe909;" d="M0 960h1024v-1024h-1024v1024z" />
<glyph unicode="&#xe90a;" d="M269.247 104.271l78.364 47.424c15.118-26.804 28.87-49.484 61.858-49.484 31.62 0 51.556 12.369 51.556 60.481v327.192h96.23v-328.553c0-99.669-58.423-145.036-143.661-145.036-76.98 0-121.666 39.869-144.348 87.983z" />
<glyph unicode="&#xe90b;" d="M609.524 114.582l78.354 45.366c20.626-33.685 47.434-58.428 94.86-58.428 39.873 0 65.299 19.935 65.299 47.431 0 32.994-26.119 44.681-70.111 63.92l-24.051 10.318c-69.429 29.551-115.484 66.669-115.484 145.031 0 72.174 54.989 127.166 140.914 127.166 61.177 0 105.168-21.311 136.784-76.989l-74.924-48.113c-16.498 29.555-34.364 41.238-61.858 41.238-28.183 0-46.056-17.871-46.056-41.238 0-28.87 17.873-40.559 59.111-58.431l24.056-10.31c81.798-35.058 127.854-70.797 127.854-151.217 0-86.614-68.049-134.038-159.468-134.038-89.358 0-147.098 42.615-175.276 98.294z" />
<glyph unicode="&#xe90c;" horiz-adv-x="1670" d="M825.431-61.047c-5.654 0-10.93 1.508-15.83 4.146l-50.129 29.776c-7.538 4.146-3.769 5.654-1.508 6.407 10.177 3.392 12.061 4.146 22.615 10.177 1.131 0.754 2.638 0.377 3.769-0.377l38.445-22.991c1.508-0.754 3.392-0.754 4.523 0l150.387 87.066c1.508 0.754 2.261 2.261 2.261 4.146v173.755c0 1.885-0.754 3.392-2.261 4.146l-150.387 86.689c-1.508 0.754-3.392 0.754-4.523 0l-150.387-86.689c-1.508-0.754-2.261-2.638-2.261-4.146v-173.755c0-1.508 0.754-3.392 2.261-4.146l41.083-23.745c22.238-11.307 36.183 1.885 36.183 15.076v171.494c0 2.261 1.885 4.523 4.523 4.523h19.222c2.261 0 4.523-1.885 4.523-4.523v-171.494c0-29.776-16.207-47.114-44.475-47.114-8.669 0-15.453 0-34.676 9.423l-39.575 22.615c-9.8 5.654-15.83 16.207-15.83 27.514v173.755c0 11.307 6.031 21.861 15.83 27.514l150.387 87.066c9.423 5.277 22.238 5.277 31.66 0l150.387-87.066c9.8-5.654 15.83-16.207 15.83-27.514v-173.755c0-11.307-6.031-21.861-15.83-27.514l-150.387-87.066c-4.9-2.261-10.553-3.392-15.83-3.392zM871.791 58.434c-65.959 0-79.528 30.153-79.528 55.783 0 2.261 1.885 4.523 4.523 4.523h19.599c2.261 0 4.146-1.508 4.146-3.769 3.015-19.976 11.684-29.776 51.637-29.776 31.66 0 45.229 7.161 45.229 24.122 0 9.8-3.769 16.961-53.144 21.861-41.083 4.146-66.713 13.192-66.713 45.983 0 30.53 25.63 48.621 68.597 48.621 48.244 0 71.99-16.584 75.005-52.767 0-1.131-0.377-2.261-1.131-3.392-0.754-0.754-1.885-1.508-3.015-1.508h-19.599c-1.885 0-3.769 1.508-4.146 3.392-4.523 20.73-16.207 27.514-47.114 27.514-34.676 0-38.822-12.061-38.822-21.107 0-10.93 4.9-14.323 51.637-20.353 46.36-6.031 68.221-14.699 68.221-47.114-0.377-33.168-27.514-52.013-75.382-52.013z" />
<glyph unicode="&#xe90d;" horiz-adv-x="1670" d="M358.817 618.52c0 6.784-3.769 13.192-9.8 16.584l-159.809 91.966c-2.638 1.508-5.654 2.261-8.669 2.638h-1.508c-3.015 0-6.031-1.131-8.669-2.638l-159.809-91.966c-6.031-3.392-9.8-9.8-9.8-16.584l0.377-247.252c0-3.392 1.885-6.784 4.9-8.292 3.015-1.885 6.784-1.885 9.423 0l94.981 54.275c6.031 3.392 9.8 9.8 9.8 16.584v115.711c0 6.784 3.769 13.192 9.8 16.584l40.329 23.368c3.015 1.885 6.407 2.638 9.8 2.638s6.784-0.754 9.423-2.638l40.329-23.368c6.031-3.392 9.8-9.8 9.8-16.584v-115.711c0-6.784 3.769-13.192 9.8-16.584l94.981-54.275c3.015-1.885 6.784-1.885 9.8 0 3.015 1.508 4.9 4.9 4.9 8.292l-0.377 247.252z" />
<glyph unicode="&#xe90e;" horiz-adv-x="1670" d="M1126.958 958.869c-3.015 1.508-6.784 1.508-9.423 0-3.015-1.885-4.9-4.9-4.9-8.292v-244.991c0-2.261-1.131-4.523-3.392-6.031-2.261-1.131-4.523-1.131-6.784 0l-39.952 22.991c-6.031 3.392-13.192 3.392-19.222 0l-159.809-92.343c-6.031-3.392-9.8-9.8-9.8-16.584v-184.309c0-6.784 3.769-13.192 9.8-16.584l159.809-92.343c6.031-3.392 13.192-3.392 19.222 0l159.809 92.343c6.031 3.392 9.8 9.8 9.8 16.584v459.452c0 7.161-3.769 13.569-9.8 16.961l-95.358 53.144zM1112.259 489.994c0-1.885-0.754-3.392-2.261-4.146l-54.652-31.66c-1.508-0.754-3.392-0.754-4.9 0l-54.652 31.66c-1.508 0.754-2.261 2.638-2.261 4.146v63.321c0 1.885 0.754 3.392 2.261 4.146l54.652 31.66c1.508 0.754 3.392 0.754 4.9 0l54.652-31.66c1.508-0.754 2.261-2.638 2.261-4.146v-63.321z" />
<glyph unicode="&#xe90f;" horiz-adv-x="1670" d="M1658.777 554.823c6.031 3.392 9.423 9.8 9.423 16.584v44.852c0 6.784-3.769 13.192-9.423 16.584l-158.679 91.966c-6.031 3.392-13.192 3.392-19.222 0l-159.809-92.343c-6.031-3.392-9.8-9.8-9.8-16.584v-184.309c0-6.784 3.769-13.192 9.8-16.584l158.679-90.458c6.031-3.392 13.192-3.392 18.845 0l96.112 53.521c3.015 1.508 4.9 4.9 4.9 8.292s-1.885 6.784-4.9 8.292l-160.563 92.343c-3.015 1.885-4.9 4.9-4.9 8.292v57.667c0 3.392 1.885 6.784 4.9 8.292l50.129 28.645c3.015 1.885 6.784 1.885 9.8 0l50.129-28.645c3.015-1.885 4.9-4.9 4.9-8.292v-45.229c0-3.392 1.885-6.784 4.9-8.292 3.015-1.885 6.784-1.885 9.8 0l94.981 55.406z" />
<glyph unicode="&#xe910;" horiz-adv-x="1670" d="M1488.037 563.492c1.131 0.754 2.638 0.754 3.769 0l30.53-17.715c1.131-0.754 1.885-1.885 1.885-3.392v-35.429c0-1.508-0.754-2.638-1.885-3.392l-30.53-17.715c-1.131-0.754-2.638-0.754-3.769 0l-30.53 17.715c-1.131 0.754-1.885 1.885-1.885 3.392v35.429c0 1.508 0.754 2.638 1.885 3.392l30.53 17.715z" />
<glyph unicode="&#xe911;" horiz-adv-x="1670" d="M626.046 724.055c-6.031 3.392-13.192 3.392-19.222 0l-158.679-91.589c-6.031-3.392-9.423-9.8-9.423-16.584v-183.555c0-6.784 3.769-13.192 9.423-16.584l158.679-91.589c6.031-3.392 13.192-3.392 19.222 0l158.679 91.589c6.031 3.392 9.423 9.8 9.423 16.584v183.555c0 6.784-3.769 13.192-9.423 16.584l-158.679 91.589z" />
<glyph unicode="&#xe912;" horiz-adv-x="1670" d="M785.102 632.466l-159.433 91.589c-1.508 0.754-3.392 1.508-4.9 1.885l-178.655-306.050c1.508-1.885 3.392-3.392 5.277-4.523l159.433-91.589c4.523-2.638 9.8-3.392 14.699-1.885l167.725 306.804c-1.131 1.508-2.638 2.638-4.146 3.769v0z" />
<glyph unicode="&#xe913;" horiz-adv-x="1670" d="M601.547 757.6l-2.261-1.131h3.015l-0.754 1.131z" />
<glyph unicode="&#xe914;" horiz-adv-x="1670" d="M785.478 415.743c4.523 2.638 7.915 7.161 9.423 12.061l-174.886 298.512c-4.523 0.754-9.423 0.377-13.569-2.261l-158.302-91.212 170.74-311.327c2.261 0.377 4.9 1.131 7.161 2.261l159.433 91.966z" />
<glyph unicode="&#xe915;" horiz-adv-x="1670" d="M800.178 418.759l-1.131 1.885v-2.638l1.131 0.754z" />
<glyph unicode="&#xe916;" horiz-adv-x="1670" d="M785.478 415.743l-159.056-91.589c-2.261-1.131-4.523-1.885-7.161-2.261l3.015-5.654 176.393 102.142v2.261l-4.523 7.538c-0.754-5.277-4.146-9.8-8.669-12.438v0z" />
<glyph unicode="&#xe917;" horiz-adv-x="1670" d="M785.478 415.743l-159.056-91.589c-2.261-1.131-4.523-1.885-7.161-2.261l3.015-5.654 176.393 102.142v2.261l-4.523 7.538c-0.754-5.277-4.146-9.8-8.669-12.438v0z" />
<glyph unicode="&#xe918;" horiz-adv-x="1186" d="M948.938 960h237.234l-593.086-1023.073-593.086 1023.073h453.711l139.375-237.234 136.41 237.234h219.442z" />
<glyph unicode="&#xe919;" horiz-adv-x="1186" d="M0 960l593.086-1023.073 593.086 1023.073h-237.234l-355.852-613.844-358.817 613.844h-234.269z" />
<glyph unicode="&#xe91a;" horiz-adv-x="1186" d="M234.269 960l358.817-616.809 355.852 616.809h-219.442l-136.41-237.234-139.375 237.234h-219.442z" />
</font>
</defs>
</svg>
